<svg xmlns="http://www.w3.org/2000/svg" viewBox="0 0 500 500">
  <!-- Mint background -->
  <rect width="500" height="500" fill="#f0fffa"/>
  
  <!-- Pixelated outer ring -->
  <path d="M250,50 
           A200,200 0 1,1 249.9,50" 
        fill="none" 
        stroke="#40E0D0" 
        stroke-width="40"
        stroke-linecap="square"
        stroke-dasharray="20,10,30,5,25,15,10,20"/>
  
  <!-- Inner blue circle with noise effect -->
  <circle cx="250" cy="250" r="150" fill="#4891FF" opacity="0.2"/>
  <circle cx="250" cy="250" r="150" fill="url(#noise)" opacity="0.8"/>
  
  <!-- Define noise pattern -->
  <defs>
    <pattern id="noise" x="0" y="0" width="100" height="100" patternUnits="userSpaceOnUse">
      <rect width="100" height="100" fill="#4891FF"/>
      <circle cx="20" cy="20" r="2" fill="white" opacity="0.3"/>
      <circle cx="60" cy="30" r="3" fill="white" opacity="0.2"/>
      <circle cx="30" cy="70" r="2.5" fill="white" opacity="0.4"/>
      <circle cx="80" cy="80" r="2" fill="white" opacity="0.3"/>
      <circle cx="40" cy="40" r="3" fill="white" opacity="0.2"/>
      <circle cx="70" cy="50" r="2" fill="white" opacity="0.4"/>
    </pattern>
  </defs>
  
  <!-- Connection points and lines -->
  <circle cx="200" cy="200" r="10" fill="#1E63E0"/>
  <circle cx="300" cy="200" r="10" fill="#1E63E0"/>
  <circle cx="250" cy="300" r="10" fill="#1E63E0"/>
  
  <line x1="200" y1="200" x2="300" y2="200" stroke="#1E63E0" stroke-width="3"/>
  <line x1="300" y1="200" x2="250" y2="300" stroke="#1E63E0" stroke-width="3"/>
  <line x1="250" y1="300" x2="200" y2="200" stroke="#1E63E0" stroke-width="3"/>
  
  <!-- Additional noise dots -->
  <circle cx="220" cy="180" r="3" fill="white" opacity="0.5"/>
  <circle cx="280" cy="220" r="4" fill="white" opacity="0.4"/>
  <circle cx="240" cy="270" r="3" fill="white" opacity="0.6"/>
  <circle cx="190" cy="240" r="2" fill="white" opacity="0.5"/>
  <circle cx="310" cy="250" r="3" fill="white" opacity="0.4"/>
</svg>
